<?xml version="1.0" encoding="UTF-8" standalone="no"?>
<!DOCTYPE svg PUBLIC "-//W3C//DTD SVG 1.0//EN" "http://www.w3.org/TR/2001/REC-SVG-20010904/DTD/svg10.dtd">
<!-- Generated by Microsoft Visio 11.0, SVG Export, v1.0 load_green.svg Page-1 -->
<svg xmlns="http://www.w3.org/2000/svg" xmlns:v="http://schemas.microsoft.com/visio/2003/SVGExtensions/" width="10.7383in"
		height="7.26778in" viewBox="0 0 773.16 523.28" xml:space="preserve" color-interpolation-filters="sRGB" class="st3">
	<v:documentProperties v:langID="1033" v:viewMarkup="false"/>

	<style type="text/css">
	<![CDATA[
		.st1 {fill:url(#grad40-5)}
		.st2 {stroke:#00ff00;stroke-linecap:round;stroke-linejoin:round;stroke-width:4.08}
		.st3 {fill:none;fill-rule:evenodd;font-size:12;overflow:visible;stroke-linecap:square;stroke-miterlimit:3}
	]]>
	</style>

	<defs id="Patterns_And_Gradients">
		<radialGradient id="grad40-5" v:fillPattern="40" v:foreground="#00ff00" v:background="#008000" cx="0.5" cy="0.5" r="0.5">
			<stop offset="0" style="stop-color:#00ff00;stop-opacity:1"/>
			<stop offset="1" style="stop-color:#008000;stop-opacity:1"/>
		</radialGradient>
	</defs>
	<g v:mID="0" v:index="1" v:groupContext="foregroundPage">
		<title>Page-1</title>
		<v:pageProperties v:drawingScale="1" v:pageScale="1" v:drawingUnits="19" v:shadowOffsetX="9" v:shadowOffsetY="-9"/>
		<v:layer v:name="Electrical" v:index="0"/>
		<g id="group1-1" transform="translate(4.08,-9.2)" v:mID="1" v:groupContext="group" v:layerMember="0">
			<v:custProps>
				<v:cp v:nameU="SubType" v:lbl="Heat source type" v:type="1" v:format="General;Radioisotope;Combustion"
						v:langID="1033" v:val="VT4(General)"/>
			</v:custProps>
			<v:userDefs>
				<v:ud v:nameU="SubType" v:val="VT0(0):26"/>
				<v:ud v:nameU="visVersion" v:val="VT0(11):26"/>
				<v:ud v:nameU="visDescription"
						v:val="VT4(Heat source, general symbol. Right-click for radioisotope or combustion heat source.)"/>
			</v:userDefs>
			<title>Heat source</title>
			<g id="shape2-2" v:mID="2" v:groupContext="shape" v:layerMember="0">
				<title>Sheet.2</title>
				<path d="M31.5 523.28 L733.5 523.28 A31.5 31.5 -180 0 0 765 491.78 L765 44.78 A31.5 31.5 -180 0 0 733.5 13.28 L31.5
							 13.28 A31.5 31.5 -180 0 0 0 44.78 L0 491.78 A31.5 31.5 -180 0 0 31.5 523.28 Z" class="st1"/>
				<path d="M66.3 13.28 L66.3 523.28" class="st2"/>
				<path d="M698.7 13.28 L698.7 523.28" class="st2"/>
				<path d="M637.5 13.28 L637.5 523.28" class="st2"/>
				<path d="M127.5 13.28 L127.5 523.28" class="st2"/>
				<path d="M31.5 523.28 L733.5 523.28 A31.5 31.5 -180 0 0 765 491.78 L765 44.78 A31.5 31.5 -180 0 0 733.5 13.28 L31.5
							 13.28 A31.5 31.5 -180 0 0 0 44.78 L0 491.78 A31.5 31.5 -180 0 0 31.5 523.28" class="st2"/>
			</g>
			<g id="shape3-11" v:mID="3" v:groupContext="shape" v:layerMember="0" transform="translate(255,-127.5)">
				<title>Sheet.3</title>
			</g>
			<g id="shape4-14" v:mID="4" v:groupContext="shape" v:layerMember="0" transform="translate(16.7515,39.1562) rotate(-45)">
				<title>Sheet.4</title>
			</g>
			<g id="shape1-17" v:mID="1" v:groupContext="groupContent" v:layerMember="0">
				<v:textBlock v:margins="rect(1,1,1,1)" v:verticalAlign="0"/>
			</g>
		</g>
	</g>
</svg>
