<?xml version="1.0" encoding="UTF-8" standalone="no"?>
<!DOCTYPE svg PUBLIC "-//W3C//DTD SVG 1.0//EN" "http://www.w3.org/TR/2001/REC-SVG-20010904/DTD/svg10.dtd">
<!-- Generated by Microsoft Visio 11.0, SVG Export, v1.0 valve_gray_green.svg Page-1 -->
<svg xmlns="http://www.w3.org/2000/svg" xmlns:v="http://schemas.microsoft.com/visio/2003/SVGExtensions/" width="10.7383in"
		height="13.9692in" viewBox="0 0 773.158 1005.78" xml:space="preserve" color-interpolation-filters="sRGB" class="st6">
	<v:documentProperties v:langID="1033"/>

	<style type="text/css">
	<![CDATA[
		.st1 {fill:url(#grad40-6);stroke:none;stroke-width:0.999997}
		.st2 {fill:none;stroke:#00ff00;stroke-linecap:round;stroke-linejoin:round;stroke-width:4.07999}
		.st3 {fill:none}
		.st4 {stroke:#00ff00;stroke-linecap:round;stroke-linejoin:round;stroke-width:4.07999}
		.st5 {fill:url(#grad40-6);stroke:#00ff00;stroke-linecap:round;stroke-linejoin:round;stroke-width:4.07999}
		.st6 {fill:none;fill-rule:evenodd;font-size:12;overflow:visible;stroke-linecap:square;stroke-miterlimit:3}
	]]>
	</style>

	<defs id="Patterns_And_Gradients">
		<radialGradient id="grad40-6" v:fillPattern="40" v:foreground="#c0c0c0" v:background="#666666" cx="0.5" cy="0.5" r="0.5">
			<stop offset="0" style="stop-color:#c0c0c0;stop-opacity:1"/>
			<stop offset="1" style="stop-color:#666666;stop-opacity:1"/>
		</radialGradient>
	</defs>
	<g v:mID="0" v:index="1" v:groupContext="foregroundPage">
		<v:userDefs>
			<v:ud v:nameU="PEHideTags"/>
		</v:userDefs>
		<title>Page-1</title>
		<v:pageProperties v:drawingScale="1" v:pageScale="1" v:drawingUnits="19" v:shadowOffsetX="8.99997"
				v:shadowOffsetY="-8.99997"/>
		<v:layer v:name="Valve" v:index="0"/>
		<g id="group1-1" transform="translate(4.07999,-310.357)" v:mID="1" v:groupContext="group" v:layerMember="0">
			<v:custProps>
				<v:cp v:nameU="SubType" v:lbl="Valve type" v:type="1" v:format="Control Valve 1;Control Valve 2;Control Valve 3"
						v:langID="1033" v:val="VT4(Control Valve 1)"/>
				<v:cp v:nameU="Power" v:lbl="Power" v:type="1" v:format=" ;F;H;M;P;S" v:langID="1033" v:val="VT4( )"/>
				<v:cp v:nameU="Description" v:lbl="Description" v:type="0" v:sortKey="0" v:langID="1033"/>
				<v:cp v:nameU="LineSize" v:lbl="Line Size" v:type="0" v:sortKey="1" v:langID="1033"/>
				<v:cp v:nameU="ValveClass" v:lbl="Valve Class" v:type="0" v:sortKey="2" v:langID="1033"/>
				<v:cp v:nameU="Manufacturer" v:lbl="Manufacturer" v:type="0" v:sortKey="3" v:langID="1033"/>
				<v:cp v:nameU="Model" v:lbl="Model" v:type="0" v:sortKey="4" v:langID="1033"/>
			</v:custProps>
			<v:userDefs>
				<v:ud v:nameU="SubType" v:val="VT0(0):26"/>
				<v:ud v:nameU="Power" v:val="VT4( )"/>
				<v:ud v:nameU="visVersion" v:val="VT0(11):26"/>
				<v:ud v:nameU="TextCH" v:prompt="Determines text control handle visibility." v:val="VT0(5):26"/>
				<v:ud v:nameU="SOLSH" v:val="VT4({D7D7DB7E-3668-43e5-AF97-97F58AB229A5})"/>
				<v:ud v:nameU="ShapeClass" v:val="VT4(Valve)"/>
				<v:ud v:nameU="PETagFormat" v:prompt="V-0" v:val="VT4(Valve)"/>
				<v:ud v:nameU="PETagNumber"/>
				<v:ud v:nameU="PEHideTag"/>
				<v:ud v:nameU="PEPageHideTags" v:val="VT0(0):26"/>
				<v:ud v:nameU="PELayout" v:val="VT0(31):26"/>
				<v:ud v:nameU="CPMSetList" v:prompt="Description,LineSize,ValveClass,Manufacturer,Model" v:val="VT4(Valve)"/>
				<v:ud v:nameU="PEComponentTag" v:val="VT4(V-0)"/>
			</v:userDefs>
			<title>Powered valve</title>
			<g id="group2-2" transform="translate(229.499,-174.964)" v:mID="2" v:groupContext="group">
				<v:userDefs>
					<v:ud v:nameU="SubType" v:val="VT0(0):26"/>
					<v:ud v:nameU="Power" v:val="VT4( )"/>
					<v:ud v:nameU="AntiScale" v:val="VT0(1):26"/>
				</v:userDefs>
				<title>Sheet.2</title>
				<g id="shape3-3" v:mID="3" v:groupContext="shape" v:layerMember="0" transform="translate(0,-210.379)">
					<title>Sheet.3</title>
					<path d="M22.5 1005.78 L283.5 1005.78 A22.4999 22.4999 -180 0 0 306 983.28 L306 722.28 A22.4999 22.4999 -180
								 0 0 283.5 699.78 L22.5 699.78 A22.4999 22.4999 -180 0 0 -0 722.28 L0 983.28 A22.4999 22.4999 -180
								 0 0 22.5 1005.78 Z" class="st1"/>
				</g>
				<g id="shape4-7" v:mID="4" v:groupContext="shape" v:layerMember="0" transform="translate(0,-210.379)">
					<title>Sheet.4</title>
					<path d="M22.5 1005.78 L283.5 1005.78 A22.4999 22.4999 -180 0 0 306 983.28 L306 722.28 A22.4999 22.4999 -180
								 0 0 283.5 699.78 L22.5 699.78 A22.4999 22.4999 -180 0 0 -0 722.28 L0 983.28 A22.4999 22.4999 -180
								 0 0 22.5 1005.78 Z" class="st2"/>
				</g>
				<g id="shape5-9" v:mID="5" v:groupContext="shape" v:layerMember="0" transform="translate(153,2.50111E-012)">
					<title>Sheet.5</title>
					<path d="M0 795.4 L0 1005.78 L0 795.4 Z" class="st3"/>
					<path d="M0 795.4 L0 1005.78" class="st4"/>
				</g>
			</g>
			<g id="shape6-12" v:mID="6" v:groupContext="shape" v:layerMember="0">
				<title>shape1-10</title>
				<path d="M0 985.65 L0 675.97 A22.4999 22.4999 0 0 1 32.56 655.84 L732.44 1005.78 A22.4999 22.4999 -180 0 0 765 985.65
							 L765 675.97 A22.4999 22.4999 -180 0 0 732.44 655.84 L32.56 1005.78 A22.4999 22.4999 0 0 1 0 985.65 Z"
						class="st5"/>
			</g>
		</g>
	</g>
</svg>
