<?xml version="1.0" encoding="UTF-8" standalone="no"?>
<!-- Created with Inkscape (http://www.inkscape.org/) -->
<svg
   xmlns:dc="http://purl.org/dc/elements/1.1/"
   xmlns:cc="http://creativecommons.org/ns#"
   xmlns:rdf="http://www.w3.org/1999/02/22-rdf-syntax-ns#"
   xmlns:svg="http://www.w3.org/2000/svg"
   xmlns="http://www.w3.org/2000/svg"
   xmlns:xlink="http://www.w3.org/1999/xlink"
   xmlns:sodipodi="http://sodipodi.sourceforge.net/DTD/sodipodi-0.dtd"
   xmlns:inkscape="http://www.inkscape.org/namespaces/inkscape"
   version="1.0"
   width="500"
   height="499.99997"
   viewBox="-0.811 -0.732 1708 1708"
   id="svg11310"
   xml:space="preserve"
   sodipodi:version="0.32"
   inkscape:version="0.46"
   sodipodi:docname="Cadenas-ferme-rouge.svg"
   inkscape:output_extension="org.inkscape.output.svg.inkscape"><metadata
   id="metadata52"><rdf:RDF><cc:Work
       rdf:about=""><dc:format>image/svg+xml</dc:format><dc:type
         rdf:resource="http://purl.org/dc/dcmitype/StillImage" /><dc:source>http://commons.wikimedia.org/wiki/Image:Crystal_Clear_action_exit.svg http://commons.wikimedia.org/wiki/Image:Crystal_Clear_action_lock1.png</dc:source><dc:description /><dc:contributor><cc:Agent><dc:title>Everaldo Coelho, YellowIcon</dc:title></cc:Agent></dc:contributor><dc:title>Cadenas fermé rouge</dc:title><dc:date>20080613</dc:date><dc:creator><cc:Agent><dc:title>Jérôme Borme</dc:title></cc:Agent></dc:creator><cc:license
         rdf:resource="LGPL" /></cc:Work></rdf:RDF></metadata><sodipodi:namedview
   inkscape:cy="183.08627"
   inkscape:cx="-150.68592"
   inkscape:zoom="0.61748916"
   inkscape:window-height="726"
   inkscape:window-width="1268"
   inkscape:pageshadow="2"
   inkscape:pageopacity="0"
   guidetolerance="10000"
   gridtolerance="10000"
   objecttolerance="10000"
   borderopacity="1.0"
   bordercolor="#666666"
   pagecolor="#71bab8"
   id="base"
   showgrid="true"
   inkscape:document-units="mm"
   inkscape:window-x="0"
   inkscape:window-y="25"
   inkscape:current-layer="svg11310"
   showguides="true"
   inkscape:guide-bbox="true" />
<defs
   id="defs11312"><inkscape:perspective
   sodipodi:type="inkscape:persp3d"
   inkscape:vp_x="0 : 249.99998 : 1"
   inkscape:vp_y="0 : 1000 : 0"
   inkscape:vp_z="500 : 249.99998 : 1"
   inkscape:persp3d-origin="250 : 166.66666 : 1"
   id="perspective54" /><linearGradient
   id="linearGradient19837"><stop
     style="stop-color:#fbc300;stop-opacity:1;"
     offset="0"
     id="stop19839" /><stop
     style="stop-color: rgb(180, 0, 0); stop-opacity: 0;"
     offset="1"
     id="stop19841" /></linearGradient><linearGradient
   id="linearGradient14977"><stop
     style="stop-color: white; stop-opacity: 0.470588;"
     offset="0"
     id="stop14979" /><stop
     style="stop-color: white; stop-opacity: 0.705882;"
     offset="1"
     id="stop14981" /></linearGradient><linearGradient
   id="linearGradient14071"><stop
     style="stop-color: white; stop-opacity: 1;"
     offset="0"
     id="stop14073" /><stop
     style="stop-color: white; stop-opacity: 0;"
     offset="1"
     id="stop14075" /></linearGradient><linearGradient
   id="linearGradient14012"><stop
     style="stop-color:#ffe008;stop-opacity:1;"
     offset="0"
     id="stop14014" /><stop
     style="stop-color: rgb(255, 61, 1); stop-opacity: 0.588235;"
     offset="1"
     id="stop14016" /></linearGradient><linearGradient
   id="linearGradient14004"><stop
     style="stop-color: white; stop-opacity: 1;"
     offset="0"
     id="stop14006" /><stop
     style="stop-color: white; stop-opacity: 0;"
     offset="1"
     id="stop14008" /></linearGradient>
<linearGradient
   x1="1531.1748"
   y1="-710.26196"
   x2="514.25446"
   y2="1775.3436"
   id="linearGradient14010"
   xlink:href="#linearGradient14004"
   gradientUnits="userSpaceOnUse"
   gradientTransform="matrix(0.995461, 0, 0, 0.995461, 3.8338, 3.9129)" /><linearGradient
   x1="1026.7279"
   y1="1147.7113"
   x2="1703.623"
   y2="1703.6219"
   id="linearGradient14022"
   xlink:href="#linearGradient14012"
   gradientUnits="userSpaceOnUse"
   gradientTransform="matrix(0.995461,0,0,0.995461,3.8338,3.9129)" /><linearGradient
   x1="853.22852"
   y1="6994.7397"
   x2="853.22852"
   y2="-1149.4908"
   id="linearGradient14077"
   xlink:href="#linearGradient14071"
   gradientUnits="userSpaceOnUse" /><linearGradient
   x1="1678.5588"
   y1="288.91214"
   x2="1678.5588"
   y2="1417.6237"
   id="linearGradient19843"
   xlink:href="#linearGradient19837"
   gradientUnits="userSpaceOnUse" /><inkscape:perspective
   id="perspective2493"
   inkscape:persp3d-origin="372.04724 : 350.78739 : 1"
   inkscape:vp_z="744.09448 : 526.18109 : 1"
   inkscape:vp_y="0 : 1000 : 0"
   inkscape:vp_x="0 : 526.18109 : 1"
   sodipodi:type="inkscape:persp3d" /></defs>
















<g
   transform="translate(-5.21045e-05, 4.61273e-05)"
   style="opacity: 1; display: inline;"
   id="layer1"><path
     d="M 6.6549519,1417.6237 C 6.6549519,1573.4671 132.99081,1699.8019 288.83311,1699.8019"
     style="fill:none;fill-opacity:0.07843140000000000;stroke:#e8c731;stroke-width:10.24799999999999933;stroke-linecap:round;stroke-linejoin:round;stroke-miterlimit:100;stroke-dasharray:none;stroke-opacity:0.66666698"
     id="path17682" /><line
     style="fill:none;fill-opacity:0.07843140000000000;stroke:#e8c231;stroke-width:10.24799999999999933;stroke-linecap:round;stroke-linejoin:round;stroke-miterlimit:100;stroke-dasharray:none;stroke-opacity:0.66666698000000002;opacity:1"
     id="line17684"
     y2="1699.802"
     x2="1417.5448"
     y1="1699.802"
     x1="288.83316"
     stroke-miterlimit="500" /><line
     style="fill:#ffff00;fill-opacity:0.07843140000000000;stroke:#e8b931;stroke-width:10.24799999999999933;stroke-linecap:round;stroke-linejoin:round;stroke-miterlimit:100;stroke-dasharray:none;stroke-opacity:0.66666698"
     id="line17690"
     y2="1417.6238"
     x2="6.654954"
     y1="288.91214"
     x1="6.654954"
     stroke-miterlimit="500" /><path
     d="M 288.83311,6.7339793 C 132.99081,6.7339793 6.6549519,133.06984 6.6549519,288.91214"
     style="fill:none;fill-opacity:0.07843140000000000;stroke:#e8c231;stroke-width:10.24799999999999933;stroke-linecap:round;stroke-linejoin:round;stroke-miterlimit:100;stroke-dasharray:none;stroke-opacity:0.66666698"
     id="path17692" /><path
     d="M 1417.5448,1699.8019 C 1573.387,1699.8019 1699.7228,1573.4671 1699.7228,1417.6237"
     style="fill:none;fill-opacity:0.07843140000000000;stroke:#e8b931;stroke-width:10.24799999999999933;stroke-linecap:round;stroke-linejoin:round;stroke-miterlimit:100;stroke-dasharray:none;stroke-opacity:0.66666698;opacity:1"
     id="path17680" /><line
     style="fill:none;fill-opacity:0.07843140000000000;stroke:#e8be31;stroke-width:10.24799999999999933;stroke-linecap:round;stroke-linejoin:round;stroke-miterlimit:100;stroke-dasharray:none;stroke-opacity:0.66666698"
     id="line17694"
     y2="6.733994"
     x2="288.83316"
     y1="6.733994"
     x1="1417.5448"
     stroke-miterlimit="500" /><line
     style="fill:none;fill-opacity:0.07843140000000000;stroke:#e8d631;stroke-width:10.24799999999999933;stroke-linecap:round;stroke-linejoin:round;stroke-miterlimit:100;stroke-dasharray:none;stroke-opacity:0.66666698"
     id="line17700"
     y2="288.91214"
     x2="1699.7231"
     y1="1417.6238"
     x1="1699.7231"
     stroke-miterlimit="500" /><path
     d="M 1699.7228,288.91214 C 1699.7228,214.07442 1669.9934,142.30174 1617.0748,89.383072 C 1564.1561,36.464399 1492.3835,6.7349693 1417.5457,6.7349693 L 288.83311,6.7349693 C 213.9944,6.7349693 142.22172,36.464399 89.303052,89.383072 C 36.385372,142.30174 6.6549519,214.07442 6.6549519,288.91214 L 6.6549519,1417.6237 C 6.6549519,1492.4625 36.384382,1564.2352 89.303052,1617.1528 C 142.22172,1670.0716 213.9944,1699.801 288.83311,1699.801 L 1417.5448,1699.801 C 1492.3835,1699.801 1564.1552,1670.0716 1617.0738,1617.1528 C 1669.9925,1564.2352 1699.7219,1492.4615 1699.7219,1417.6237 L 1699.7219,288.91214 L 1699.7228,288.91214 z "
     style="opacity:1;fill:url(#linearGradient14022) rgb(0, 0, 0);fill-opacity:1.0;fill-rule:evenodd;display:inline"
     id="path17668" /><path
     d="M 1699.7228,288.91214 C 1699.7228,133.06984 1573.387,6.7349693 1417.5448,6.7349693 L 288.83311,6.7349693 C 132.99081,6.7339793 6.6549519,133.06984 6.6549519,288.91214 L 6.6549519,1135.4457 C 684.27075,1188.7794 1335.8205,863.00502 1699.7228,288.91214 z "
     style="opacity: 1; fill: url(#linearGradient14010) rgb(0, 0, 0); fill-opacity: 1; fill-rule: evenodd; display: inline;"
     id="path17670" /><path
     d="M 1417.5448,1671.5836 C 1558.5029,1661.1612 1674.5607,1556.7094 1699.7228,1417.6237 C 1699.7228,1573.4671 1573.387,1699.8019 1417.5448,1699.8019 L 288.83311,1699.8019 C 132.99081,1699.8019 6.6549519,1573.4671 6.6549519,1417.6237 C 31.816212,1556.7094 147.87494,1661.1612 288.83311,1671.5836 L 1417.5448,1671.5836 z "
     style="fill: white; fill-opacity: 0.258427; fill-rule: evenodd;"
     id="path11342" /><path
     d="M 1417.5448,1699.8019 C 1573.387,1699.8019 1699.7228,1573.4671 1699.7228,1417.6237"
     style="fill:none;stroke:#ffb455;stroke-width:14.93190000000000062;stroke-linecap:round;stroke-linejoin:round;stroke-miterlimit:100;stroke-dasharray:none;stroke-opacity:1"
     id="path11336" /><path
     d="M 6.6549519,1417.6237 C 6.6549519,1573.4671 132.99081,1699.8019 288.83311,1699.8019"
     style="fill:none;stroke:#ffdc55;stroke-width:14.93190000000000062;stroke-linecap:round;stroke-linejoin:round;stroke-miterlimit:100;stroke-dasharray:none;stroke-opacity:1"
     id="path11334" /><line
     stroke-miterlimit="500"
     x1="288.83316"
     y1="1699.802"
     x2="1417.5448"
     y2="1699.802"
     id="line11326"
     style="fill:none;stroke:#ffc655;stroke-width:14.93190000000000062;stroke-linecap:round;stroke-linejoin:round;stroke-miterlimit:100;stroke-dasharray:none;stroke-opacity:1" /><line
     stroke-miterlimit="500"
     x1="6.654954"
     y1="288.91214"
     x2="6.654954"
     y2="1417.6238"
     id="line11332"
     style="fill:none;stroke:#ffd355;stroke-width:14.93190000000000062;stroke-linecap:round;stroke-linejoin:round;stroke-miterlimit:100;stroke-dasharray:none;stroke-opacity:1" /><path
     d="M 288.83311,6.7339793 C 132.99081,6.7339793 6.6549519,133.06984 6.6549519,288.91214"
     style="fill:none;stroke:#ffdc55;stroke-width:14.93190000000000062;stroke-linecap:round;stroke-linejoin:round;stroke-miterlimit:100;stroke-dasharray:none;stroke-opacity:1"
     id="path11340" /><line
     stroke-miterlimit="500"
     x1="1417.5448"
     y1="6.733994"
     x2="288.83316"
     y2="6.733994"
     id="line11330"
     style="fill:none;stroke:#ffc655;stroke-width:14.93190000000000062;stroke-linecap:round;stroke-linejoin:round;stroke-miterlimit:100;stroke-dasharray:none;stroke-opacity:1" /><path
     d="M 1699.7228,288.91214 C 1699.7228,133.06984 1573.387,6.7349693 1417.5448,6.7349693"
     style="fill:none;stroke:#faff55;stroke-width:14.93190000000000062;stroke-linecap:round;stroke-linejoin:round;stroke-miterlimit:100;stroke-dasharray:none;stroke-opacity:1;opacity:1"
     id="path11338" /><line
     stroke-miterlimit="500"
     x1="1699.7231"
     y1="1417.6238"
     x2="1699.7231"
     y2="288.91214"
     id="line11328"
     style="fill:none;stroke:#ffbd55;stroke-width:14.93190000000000062;stroke-linecap:round;stroke-linejoin:round;stroke-miterlimit:100;stroke-dasharray:none;stroke-opacity:1" /><path
     d="M 1417.5448,1671.5836 C 1558.5029,1661.1612 1674.5607,1556.7094 1699.7228,1417.6237 C 1699.7228,1573.4671 1573.387,1699.8019 1417.5448,1699.8019 L 288.83311,1699.8019 C 132.99081,1699.8019 6.6549519,1573.4671 6.6549519,1417.6237 C 31.816212,1556.7094 147.87494,1661.1612 288.83311,1671.5836 L 1417.5448,1671.5836 z "
     style="fill: white; fill-opacity: 0.588235; fill-rule: evenodd;"
     id="path17676" /><path
     d="M 1699.7228,288.91214 C 1699.7228,133.06984 1573.387,6.7349693 1417.5448,6.7349693"
     style="fill: none; fill-opacity: 0.0784314; stroke: rgb(232, 49, 49); stroke-width: 10.248; stroke-linecap: round; stroke-linejoin: round; stroke-miterlimit: 100; stroke-dasharray: none; stroke-opacity: 0.666667;"
     id="path17696" /><path
     d="M 6.6549519,1417.6237 C 30.031352,1417.6237 48.981922,1164.954 48.981922,853.26745 C 48.981922,541.58286 30.031352,288.91214 6.6549519,288.91214 L 6.6549519,1417.6237 L 6.6549519,1417.6237 z "
     style="fill:#e6c200;fill-opacity:0.58823502;fill-rule:evenodd"
     id="path11324" /><path
     d="M 1699.7228,1417.6237 C 1676.3465,1417.6237 1657.3949,1164.954 1657.3949,853.26745 C 1657.3949,541.58286 1676.3455,288.91214 1699.7228,288.91214 L 1699.7228,1417.6237 z "
     style="fill: url(#linearGradient19843) rgb(0, 0, 0); fill-opacity: 1; fill-rule: evenodd;"
     id="path11322" /><path
     d="M 1699.7228,288.91214 C 1652.7113,168.68342 1545.1607,82.642811 1417.5448,63.170614 L 288.83311,63.170614 C 161.21708,82.642811 53.666562,168.68243 6.6549519,288.91214 C 6.6549519,133.06984 132.99081,6.7349693 288.83311,6.7349693 L 1417.5448,6.7349693 C 1573.387,6.7339793 1699.7228,133.06984 1699.7228,288.91214 z "
     style="fill:#ffffff;fill-opacity:0.32158589;fill-rule:evenodd"
     id="path14085" /></g><rect
   style="fill:#ffffff;fill-opacity:1;fill-rule:nonzero;stroke:#000000;stroke-width:0.70866102;stroke-linecap:round;stroke-linejoin:round;marker:none;stroke-miterlimit:4;stroke-dasharray:none;stroke-dashoffset:0;stroke-opacity:1;visibility:visible;display:inline;overflow:visible"
   id="rect2427"
   width="895.20062"
   height="672.79132"
   x="405.41391"
   y="738.48834"
   rx="111.04942"
   ry="99.200508" /><path
   style="fill:#ffffff;fill-opacity:1;fill-rule:evenodd;stroke:none;stroke-width:1px;stroke-linecap:butt;stroke-linejoin:miter;stroke-opacity:1"
   d="M 550.6612,812.6719 C 550.6612,731.979 550.6612,639.1821 550.6612,558.4892 C 550.6612,511.4363 575.71,458.3978 599.077,425.3459 C 665.8744,330.8633 744.3242,304.3065 865.3636,304.3065 C 865.3636,304.3065 865.3636,449.5538 865.3636,485.8656 C 841.1557,485.8656 816.9478,485.8656 780.636,485.8656 C 756.4281,485.8656 708.0124,510.0734 708.0124,558.4892 C 708.0124,631.1129 708.0124,812.6719 708.0124,812.6719 L 550.6612,812.6719 z"
   id="path2510"
   sodipodi:nodetypes="ccsscsscc" /><path
   style="fill:#ffffff;fill-opacity:1;fill-rule:evenodd;stroke:none;stroke-width:1px;stroke-linecap:butt;stroke-linejoin:miter;stroke-opacity:1"
   d="M 1155.8581,812.6719 C 1155.8581,731.979 1155.8581,639.1821 1155.8581,558.4892 C 1155.8581,511.4363 1130.8093,458.3978 1107.4423,425.3459 C 1040.6449,330.8633 962.1951,304.3065 841.1557,304.3065 C 841.1557,304.3065 841.1557,449.5538 841.1557,485.8656 C 865.3636,485.8656 889.5715,485.8656 925.8833,485.8656 C 950.0912,485.8656 998.5069,510.0734 998.5069,558.4892 C 998.5069,631.1129 998.5069,812.6719 998.5069,812.6719 L 1155.8581,812.6719 z"
   id="path3338"
   sodipodi:nodetypes="ccsscsscc" /><path
   d="M 607.8769,413.0216 C 741.2076,267.7744 976.9135,267.5621 1097.9528,412.8093 C 1013.2253,255.4582 704.8958,255.6705 607.8769,413.0216 z"
   style="fill:#000000;fill-opacity:0.62745098;fill-rule:evenodd;display:inline"
   id="path2499"
   sodipodi:nodetypes="ccc" /><path
   d="M 405.414,836.8797 C 423.5699,764.2561 465.9337,740.0482 550.6612,740.0482 C 550.7322,738.0319 550.6612,740.0482 550.6612,738.8378 C 544.6093,738.8378 517.3754,738.8378 511.3234,738.8378 C 471.9856,738.8378 408.44,758.2041 405.414,836.8797 z"
   style="fill:#000000;fill-opacity:0.62745098;fill-rule:evenodd;display:inline"
   id="path3340"
   sodipodi:nodetypes="ccccc" /><path
   sodipodi:nodetypes="ccccc"
   id="path2453"
   style="fill:#000000;fill-opacity:0.62745098;fill-rule:evenodd;display:inline"
   d="M 1301.3184,836.87974 C 1283.1625,764.25614 1240.7987,740.04824 1156.0712,740.04824 C 1156.0002,738.03194 1156.0712,740.04824 1156.0712,738.83784 C 1162.1231,738.83784 1189.357,738.83784 1195.409,738.83784 C 1234.7468,738.83784 1298.2924,758.20414 1301.3184,836.87974 z" /></svg>