<?xml version="1.0" encoding="UTF-8" standalone="no"?>
<!DOCTYPE svg PUBLIC "-//W3C//DTD SVG 1.0//EN" "http://www.w3.org/TR/2001/REC-SVG-20010904/DTD/svg10.dtd">
<!-- Generated by Microsoft Visio 11.0, SVG Export, v1.0 chiller_red.svg Page-1 -->
<svg xmlns="http://www.w3.org/2000/svg" xmlns:v="http://schemas.microsoft.com/visio/2003/SVGExtensions/" width="10.4883in"
		height="6.64958in" viewBox="0 0 755.16 478.77" xml:space="preserve" color-interpolation-filters="sRGB" class="st3">
	<v:documentProperties v:langID="1033" v:viewMarkup="false"/>

	<style type="text/css">
	<![CDATA[
		.st1 {fill:url(#grad40-4)}
		.st2 {stroke:#ff0000;stroke-linecap:round;stroke-linejoin:round;stroke-width:4.08}
		.st3 {fill:none;fill-rule:evenodd;font-size:12;overflow:visible;stroke-linecap:square;stroke-miterlimit:3}
	]]>
	</style>

	<defs id="Patterns_And_Gradients">
		<radialGradient id="grad40-4" v:fillPattern="40" v:foreground="#ff0000" v:background="#800000" cx="0.5" cy="0.5" r="0.5">
			<stop offset="0" style="stop-color:#ff0000;stop-opacity:1"/>
			<stop offset="1" style="stop-color:#800000;stop-opacity:1"/>
		</radialGradient>
	</defs>
	<g v:mID="0" v:index="1" v:groupContext="foregroundPage">
		<title>Page-1</title>
		<v:pageProperties v:drawingScale="1" v:pageScale="1" v:drawingUnits="19" v:shadowOffsetX="9" v:shadowOffsetY="-9"/>
		<v:layer v:name="Flow Equipment" v:index="0"/>
		<g id="shape1-1" v:mID="1" v:groupContext="shape" v:layerMember="0" transform="translate(4.08,-26.49)">
			<title>Chiller</title>
			<v:custProps>
				<v:cp v:nameU="ShapeClass" v:lbl="Shape class" v:invis="true" v:langID="1033" v:val="VT4(Building Component)"/>
				<v:cp v:nameU="ShapeType" v:lbl="Shape type" v:invis="true" v:langID="1033" v:val="VT4(Flow Equipment)"/>
				<v:cp v:nameU="SubShapeType" v:lbl="Subshape type" v:invis="true" v:langID="1033" v:val="VT4(Chiller)"/>
			</v:custProps>
			<v:userDefs>
				<v:ud v:nameU="Type" v:val="VT0(0):26"/>
				<v:ud v:nameU="Name" v:val="VT4()"/>
				<v:ud v:nameU="visVersion" v:val="VT0(11):26"/>
				<v:ud v:nameU="SOLSH" v:val="VT4({5D50005D-537C-4738-9C46-130C74335A6D})"/>
				<v:ud v:nameU="ShapeClass" v:prompt="Building Component" v:val="VT0(3):26"/>
				<v:ud v:nameU="ShapeType" v:prompt="Flow Equipment" v:val="VT0(17):26"/>
				<v:ud v:nameU="SubShapeType" v:prompt="Chiller" v:val="VT0(14):26"/>
				<v:ud v:nameU="AntiScale" v:val="VT0(1):26"/>
				<v:ud v:nameU="HasText" v:val="VT0(0):5"/>
			</v:userDefs>
			<path d="M26.15 478.77 L26.15 478.77 A11.205 11.205 0 0 1 37.35 489.97 L37.35 489.97 A11.205 11.205 -180 0 0 48.56 501.18
						 L63.49 501.18 A11.205 11.205 -180 0 0 74.7 489.97 L74.7 489.97 A11.205 11.205 0 0 1 85.91 478.77 L661.1
						 478.77 A11.205 11.205 0 0 1 672.3 489.97 L672.3 489.97 A11.205 11.205 -180 0 0 683.51 501.18 L698.44 501.18
						 A11.205 11.205 -180 0 0 709.65 489.97 L709.65 489.97 A11.205 11.205 0 0 1 720.85 478.77 L720.85 478.77 A26.145
						 26.145 -180 0 0 747 452.62 L747 286.17 A31.5 31.5 -180 0 0 715.5 254.67 L694.71 254.67 A22.41 22.41 0 0
						 1 672.3 232.26 L672.3 232.26 A22.41 22.41 0 0 1 694.71 209.85 L715.5 209.85 A31.5 31.5 -180 0 0 747 178.35
						 L747 62.07 A31.5 31.5 -180 0 0 715.5 30.57 L31.5 30.57 A31.5 31.5 -180 0 0 0 62.07 L0 178.35 A31.5 31.5
						 -180 0 0 31.5 209.85 L52.29 209.85 A22.41 22.41 0 0 1 74.7 232.26 L74.7 232.26 A22.41 22.41 0 0 1 52.29
						 254.67 L31.5 254.67 A31.5 31.5 -180 0 0 0 286.17 L0 452.62 A26.145 26.145 -180 0 0 26.15 478.77 Z"
					class="st1"/>
			<path d="M74.7 209.85 L672.3 209.85" class="st2"/>
			<path d="M74.7 254.67 L672.3 254.67" class="st2"/>
			<path d="M26.15 478.77 L26.15 478.77 A11.205 11.205 0 0 1 37.35 489.97 L37.35 489.97 A11.205 11.205 -180 0 0 48.56 501.18
						 L63.49 501.18 A11.205 11.205 -180 0 0 74.7 489.97 L74.7 489.97 A11.205 11.205 0 0 1 85.91 478.77 L661.1
						 478.77 A11.205 11.205 0 0 1 672.3 489.97 L672.3 489.97 A11.205 11.205 -180 0 0 683.51 501.18 L698.44 501.18
						 A11.205 11.205 -180 0 0 709.65 489.97 L709.65 489.97 A11.205 11.205 0 0 1 720.85 478.77 L720.85 478.77 A26.145
						 26.145 -180 0 0 747 452.62 L747 286.17 A31.5 31.5 -180 0 0 715.5 254.67 L694.71 254.67 A22.41 22.41 0 0
						 1 672.3 232.26 L672.3 232.26 A22.41 22.41 0 0 1 694.71 209.85 L715.5 209.85 A31.5 31.5 -180 0 0 747 178.35
						 L747 62.07 A31.5 31.5 -180 0 0 715.5 30.57 L31.5 30.57 A31.5 31.5 -180 0 0 0 62.07 L0 178.35 A31.5 31.5
						 -180 0 0 31.5 209.85 L52.29 209.85 A22.41 22.41 0 0 1 74.7 232.26 L74.7 232.26 A22.41 22.41 0 0 1 52.29
						 254.67 L31.5 254.67 A31.5 31.5 -180 0 0 0 286.17 L0 452.62 A26.145 26.145 -180 0 0 26.15 478.77"
					class="st2"/>
			<path d="M37.35 478.77 L74.7 478.77" class="st2"/>
			<path d="M672.3 478.77 L709.65 478.77" class="st2"/>
		</g>
	</g>
</svg>
